<svg
    aria-hidden="true"
    xmlns="http://www.w3.org/2000/svg"
    overflow="hidden">

    <defs>
        <symbol id="instagram">
            <g clip-path="url(#clip0_75273_603)">
                <path
                    d="M19.9804 5.88005C19.9336 4.81738 19.7617 4.0868 19.5156 3.45374C19.2616 2.78176 18.8709 2.18014 18.359 1.68002C17.8589 1.1721 17.2533 0.777435 16.5891 0.527447C15.9524 0.281274 15.2256 0.109427 14.163 0.0625732C13.0924 0.0117516 12.7525 0 10.0371 0C7.32173 0 6.98185 0.0117516 5.91521 0.0586052C4.85253 0.105459 4.12195 0.277459 3.48904 0.523479C2.81692 0.777435 2.2153 1.16814 1.71517 1.68002C1.20726 2.18014 0.812743 2.78573 0.562603 3.44992C0.31643 4.0868 0.144583 4.81341 0.0977294 5.87609C0.0469078 6.9467 0.0351562 7.28658 0.0351562 10.002C0.0351562 12.7173 0.0469078 13.0572 0.0937614 14.1239C0.140615 15.1865 0.312615 15.9171 0.558787 16.5502C0.812743 17.2221 1.20726 17.8238 1.71517 18.3239C2.2153 18.8318 2.82088 19.2265 3.48508 19.4765C4.12195 19.7226 4.84856 19.8945 5.91139 19.9413C6.97788 19.9883 7.31791 19.9999 10.0333 19.9999C12.7487 19.9999 13.0885 19.9883 14.1552 19.9413C15.2179 19.8945 15.9484 19.7226 16.5813 19.4765C17.9254 18.9568 18.9881 17.8941 19.5078 16.5502C19.7538 15.9133 19.9258 15.1865 19.9727 14.1239C20.0195 13.0572 20.0313 12.7173 20.0313 10.002C20.0313 7.28658 20.0273 6.9467 19.9804 5.88005ZM18.1794 14.0457C18.1364 15.0225 17.9723 15.5499 17.8356 15.9015C17.4995 16.7728 16.808 17.4643 15.9367 17.8004C15.5851 17.9372 15.0538 18.1012 14.0809 18.1441C13.026 18.1911 12.7096 18.2027 10.0411 18.2027C7.37255 18.2027 7.05221 18.1911 6.00113 18.1441C5.02438 18.1012 4.49693 17.9372 4.1453 17.8004C3.71171 17.6402 3.31704 17.3862 2.9967 17.0541C2.6646 16.7298 2.41065 16.3391 2.2504 15.9055C2.11365 15.5539 1.94959 15.0225 1.90671 14.0497C1.8597 12.9948 1.8481 12.6783 1.8481 10.0097C1.8481 7.34122 1.8597 7.02087 1.90671 5.96995C1.94959 4.99319 2.11365 4.46575 2.2504 4.11412C2.41065 3.68038 2.6646 3.28586 3.00067 2.96536C3.32483 2.63327 3.71553 2.37931 4.14927 2.21921C4.5009 2.08247 5.03231 1.9184 6.0051 1.87537C7.05999 1.82851 7.37652 1.81676 10.0449 1.81676C12.7174 1.81676 13.0337 1.82851 14.0848 1.87537C15.0616 1.9184 15.589 2.08247 15.9407 2.21921C16.3742 2.37931 16.7689 2.63327 17.0893 2.96536C17.4213 3.28967 17.6753 3.68038 17.8356 4.11412C17.9723 4.46575 18.1364 4.99701 18.1794 5.96995C18.2263 7.02484 18.238 7.34122 18.238 10.0097C18.238 12.6783 18.2263 12.9908 18.1794 14.0457Z"
                    fill="#AFB1B8" />
                <path
                    d="M10.0371 4.8642C7.20074 4.8642 4.89941 7.16537 4.89941 10.0019C4.89941 12.8385 7.20074 15.1396 10.0371 15.1396C12.8737 15.1396 15.1749 12.8385 15.1749 10.0019C15.1749 7.16537 12.8737 4.8642 10.0371 4.8642ZM10.0371 13.3346C8.19702 13.3346 6.70442 11.8422 6.70442 10.0019C6.70442 8.16165 8.19702 6.66921 10.0371 6.66921C11.8774 6.66921 13.3698 8.16165 13.3698 10.0019C13.3698 11.8422 11.8774 13.3346 10.0371 13.3346V13.3346Z"
                    fill="#AFB1B8" />
                <path
                    d="M16.5775 4.6611C16.5775 5.32346 16.0404 5.86052 15.3779 5.86052C14.7155 5.86052 14.1785 5.32346 14.1785 4.6611C14.1785 3.99858 14.7155 3.46167 15.3779 3.46167C16.0404 3.46167 16.5775 3.99858 16.5775 4.6611V4.6611Z"
                    fill="#AFB1B8" />
            </g>
            <defs>
                <clipPath id="clip0_75273_603">
                    <rect width="20" height="20" fill="white" />
                </clipPath>
            </defs>
        </symbol>
        <symbol id="twitter">
            <g clip-path="url(#clip0_75273_569)">
                <path
                    d="M20 3.79875C19.2563 4.125 18.4637 4.34125 17.6375 4.44625C18.4875 3.93875 19.1363 3.14125 19.4412 2.18C18.6488 2.6525 17.7738 2.98625 16.8412 3.1725C16.0887 2.37125 15.0162 1.875 13.8462 1.875C11.5763 1.875 9.74875 3.7175 9.74875 5.97625C9.74875 6.30125 9.77625 6.61375 9.84375 6.91125C6.435 6.745 3.41875 5.11125 1.3925 2.6225C1.03875 3.23625 0.83125 3.93875 0.83125 4.695C0.83125 6.115 1.5625 7.37375 2.6525 8.1025C1.99375 8.09 1.3475 7.89875 0.8 7.5975C0.8 7.61 0.8 7.62625 0.8 7.6425C0.8 9.635 2.22125 11.29 4.085 11.6712C3.75125 11.7625 3.3875 11.8062 3.01 11.8062C2.7475 11.8062 2.4825 11.7913 2.23375 11.7362C2.765 13.36 4.2725 14.5538 6.065 14.5925C4.67 15.6838 2.89875 16.3412 0.98125 16.3412C0.645 16.3412 0.3225 16.3263 0 16.285C1.81625 17.4563 3.96875 18.125 6.29 18.125C13.835 18.125 17.96 11.875 17.96 6.4575C17.96 6.27625 17.9538 6.10125 17.945 5.9275C18.7588 5.35 19.4425 4.62875 20 3.79875Z"
                    fill="#AFB1B8" />
            </g>
            <defs>
                <clipPath id="clip0_75273_569">
                    <rect width="20" height="20" fill="white" />
                </clipPath>
            </defs>
        </symbol>
        <symbol id="facebook1">
            <g clip-path="url(#clip0_75273_565)">
                <path
                    d="M13.3309 3.32083H15.1567V0.140833C14.8417 0.0975 13.7584 0 12.4967 0C9.86422 0 8.06088 1.65583 8.06088 4.69917V7.5H5.15588V11.055H8.06088V20H11.6226V11.0558H14.4101L14.8526 7.50083H11.6217V5.05167C11.6226 4.02417 11.8992 3.32083 13.3309 3.32083Z"
                    fill="#AFB1B8" />
            </g>
            <defs>
                <clipPath id="clip0_75273_565">
                    <rect width="20" height="20" fill="white" />
                </clipPath>
            </defs>

        </symbol>
        <symbol id="in">

            <g clip-path="url(#clip0_75273_559)">
                <path
                    d="M19.9951 20V19.9992H20.0001V12.6642C20.0001 9.07587 19.2276 6.31171 15.0326 6.31171C13.0159 6.31171 11.6626 7.41837 11.1101 8.46754H11.0517V6.64671H7.07422V19.9992H11.2159V13.3875C11.2159 11.6467 11.5459 9.96337 13.7017 9.96337C15.8259 9.96337 15.8576 11.95 15.8576 13.4992V20H19.9951Z"
                    fill="#AFB1B8" />
                <path d="M0.329956 6.64746H4.47662V20H0.329956V6.64746Z" fill="#AFB1B8" />
                <path
                    d="M2.40167 0C1.07583 0 0 1.07583 0 2.40167C0 3.7275 1.07583 4.82583 2.40167 4.82583C3.7275 4.82583 4.80333 3.7275 4.80333 2.40167C4.8025 1.07583 3.72667 0 2.40167 0V0Z"
                    fill="#AFB1B8" />
            </g>
            <defs>
                <clipPath id="clip0_75273_559">
                    <rect width="20" height="20" fill="white" />
                </clipPath>
            </defs>

        </symbol>
        <symbol id="sobre">
            <path
                d="M14.5 0H1.50001C0.672854 0 0 0.672853 0 1.50001V10.5C0 11.3271 0.672854 12 1.50001 12H14.5C15.3271 12 16 11.3271 16 10.5V1.50001C16 0.672853 15.3271 0 14.5 0ZM14.5 0.999994C14.5679 0.999994 14.6325 1.01409 14.6916 1.0387L8 6.83838L1.30833 1.0387C1.36742 1.01412 1.43204 0.999994 1.49998 0.999994H14.5ZM14.5 11H1.50001C1.22414 11 0.999996 10.7759 0.999996 10.5V2.09521L7.67236 7.87792C7.76661 7.95944 7.8833 7.99999 8 7.99999C8.1167 7.99999 8.23339 7.95948 8.32764 7.87792L15 2.09521V10.5C15 10.7759 14.7759 11 14.5 11Z"
                fill="#2196F3" />


        </symbol>
        <symbol id="telefono">
            <path
                d="M8.5 0H1.5C0.672848 0 0 0.672848 0 1.5V14.5C0 15.3272 0.672848 16 1.5 16H8.5C9.32715 16 10 15.3272 10 14.5V1.5C10 0.672848 9.32715 0 8.5 0ZM1.5 1H8.5C8.77588 1 9 1.22412 9 1.5V12H1V1.5C1 1.22412 1.22412 1 1.5 1ZM8.5 15H1.5C1.22412 15 1 14.7759 1 14.5V13H9V14.5C9 14.7759 8.77588 15 8.5 15Z"
                fill="#757575" />
            <path
                d="M2.35355 13.7389C2.54882 13.9213 2.54882 14.2169 2.35355 14.3992C2.15828 14.5816 1.84172 14.5816 1.64645 14.3992C1.45118 14.2169 1.45118 13.9213 1.64645 13.7389C1.84172 13.5566 2.15828 13.5566 2.35355 13.7389Z"
                fill="#757575" />


        </symbol>
        <symbol id="Group-1">
            <rect width="270" height="120" rx="4" fill="#F5F4FA" />
            <path
                d="M167.316 73.3385L148.847 54.7337L150.897 44.6373C151.426 44.8438 151.988 44.9517 152.556 44.9558H152.57C155.178 44.9866 157.317 42.8974 157.348 40.2893C157.379 37.6812 155.289 35.542 152.681 35.5111C150.073 35.4803 147.934 37.5695 147.903 40.1776C147.897 40.7357 147.989 41.2905 148.176 41.8163L137.326 43.1405L119.628 25.35C119.41 25.1285 119.114 25.0025 118.804 25C118.498 25.0016 118.204 25.1235 117.987 25.3395L114.679 28.6295C114.223 29.0851 114.223 29.8236 114.679 30.2792L116.459 32.0852C109.562 44.7681 111.802 60.4741 121.97 70.7228C122.064 70.8121 122.172 70.8843 122.29 70.9363C122.216 71.3311 122.178 71.7317 122.176 72.1333V85.6667H108.176C104.956 85.6705 102.346 88.28 102.342 91.5V93.8333C102.342 94.4776 102.865 95 103.509 95H157.176C157.82 95 158.342 94.4776 158.342 93.8333V91.5C158.338 88.28 155.729 85.6705 152.509 85.6667H138.509V79.6688C140.702 80.1288 142.937 80.3633 145.178 80.3688C150.555 80.363 155.846 79.0225 160.578 76.4675L162.367 78.2677C162.584 78.4892 162.881 78.6152 163.191 78.6177C163.497 78.6161 163.79 78.4941 164.008 78.2782L167.316 74.9882C167.772 74.5326 167.772 73.7941 167.316 73.3385ZM150.925 38.6348C151.838 37.726 153.316 37.7301 154.224 38.6437C155.133 39.5574 155.129 41.0348 154.215 41.9435C153.778 42.3785 153.186 42.6226 152.569 42.6225H152.562C151.274 42.6158 150.235 41.5658 150.241 40.2771C150.244 39.6602 150.492 39.0699 150.929 38.6348H150.925ZM148.178 46.301L146.869 52.7445L144.298 50.158L148.178 46.301ZM146.853 44.3282L142.653 48.5037L139.404 45.237L146.853 44.3282ZM152.509 88C154.442 88 156.009 89.567 156.009 91.5V92.6667H104.676V91.5C104.676 89.567 106.243 88 108.176 88H152.509ZM136.176 83.3333V85.6667H124.509V83.3333H136.176ZM124.509 81V72.1333C124.509 69.303 127.126 67 130.342 67C133.559 67 136.176 69.303 136.176 72.1333V81H124.509ZM138.509 77.29V72.1333C138.509 68.0162 134.846 64.6667 130.342 64.6667C127.431 64.622 124.708 66.1041 123.165 68.5738C114.289 59.2249 112.29 45.2875 118.181 33.8207L158.872 74.7455C152.589 77.9419 145.386 78.8418 138.509 77.29ZM163.204 75.7943L161.56 74.1412L118.792 31.1157L117.141 29.4613L118.792 27.8163L136.15 45.272C136.158 45.272 136.163 45.2872 136.171 45.293L164.859 74.1493L163.204 75.7943Z"
                fill="#212121" />
            <path
                d="M130.353 69.3333H130.342C128.409 69.3304 126.84 70.895 126.837 72.8281C126.834 74.7611 128.399 76.3304 130.332 76.3333H130.342C132.275 76.3362 133.845 74.7716 133.848 72.8386C133.85 70.9055 132.286 69.3362 130.353 69.3333ZM131.169 73.6605C130.95 73.8789 130.652 74.0012 130.342 74C129.698 73.9966 129.178 73.4716 129.182 72.8273C129.183 72.5189 129.307 72.2237 129.526 72.0062C129.743 71.7902 130.036 71.6683 130.342 71.6667C130.987 71.67 131.506 72.195 131.503 72.8393C131.501 73.1477 131.378 73.4429 131.159 73.6605H131.169Z"
                fill="#2196F3" />
        </symbol>
        <symbol id="Group-2">
            <rect width="270" height="120" rx="4" fill="#F5F4FA" />
            <g clip-path="url(#clip0_75273_444)" filter="url(#filter0_d_75273_444)">
                <path
                    d="M168.461 58.4715C168.458 39.9819 153.466 24.9963 134.975 25C116.486 25.0037 101.5 39.9963 101.504 58.4859C101.507 73.0502 110.925 85.9413 124.8 90.3713C124.932 90.413 125.07 90.4343 125.208 90.4338C125.472 90.4333 125.73 90.3628 125.957 90.2287C126.253 90.0541 126.473 89.7764 126.577 89.449L135.032 62.6521C137.343 62.6404 139.207 60.7568 139.194 58.4459C139.183 56.1345 137.3 54.2706 134.988 54.2824C134.367 54.285 133.753 54.4282 133.194 54.7011L122.025 43.5302C121.471 42.9951 120.588 43.0106 120.053 43.5644C119.53 44.1054 119.53 44.962 120.053 45.503L131.216 56.6792C130.36 58.4277 130.849 60.5383 132.39 61.7303L124.334 87.2647C108.414 81.4002 100.262 63.7405 106.126 47.8203C111.991 31.9 129.65 23.7482 145.571 29.6127C161.491 35.4771 169.643 53.1374 163.778 69.0571C160.913 76.8351 155.026 83.1252 147.455 86.4989L146.584 82.3989C146.425 81.6454 145.684 81.1636 144.931 81.3233C144.693 81.3741 144.473 81.4857 144.291 81.6475L135.898 89.1409C135.322 89.653 135.271 90.5347 135.783 91.1105C135.95 91.2974 136.164 91.4362 136.403 91.5126L147.119 94.9327C147.852 95.1682 148.638 94.765 148.873 94.0312C148.948 93.7994 148.96 93.5527 148.91 93.3145L148.055 89.2915C160.445 84.0678 168.49 71.918 168.461 58.4715ZM134.983 57.0766C135.753 57.0766 136.378 57.7014 136.378 58.4715C136.378 59.2422 135.753 59.8665 134.983 59.8665C134.212 59.8665 133.588 59.2422 133.588 58.4715C133.588 57.7014 134.212 57.0766 134.983 57.0766ZM139.577 89.5916L144.355 85.3298L145.674 91.543L139.577 89.5916Z"
                    fill="#212121" />
                <path
                    d="M133.588 31.9673V34.7572C133.588 35.5278 134.212 36.1522 134.983 36.1522C135.753 36.1522 136.378 35.5278 136.378 34.7572V31.9673C136.378 31.1972 135.753 30.5723 134.983 30.5723C134.212 30.5723 133.588 31.1972 133.588 31.9673Z"
                    fill="#2196F3" />
                <path
                    d="M108.479 57.0765C107.708 57.0765 107.084 57.7014 107.084 58.4715C107.084 59.2421 107.708 59.8665 108.479 59.8665H111.269C112.039 59.8665 112.664 59.2421 112.664 58.4715C112.664 57.7014 112.039 57.0765 111.269 57.0765H108.479Z"
                    fill="#2196F3" />
                <path
                    d="M161.487 59.8665C162.257 59.8665 162.881 59.2421 162.881 58.4715C162.881 57.7014 162.257 57.0765 161.487 57.0765H158.697C157.926 57.0765 157.302 57.7014 157.302 58.4715C157.302 59.2421 157.926 59.8665 158.697 59.8665H161.487Z"
                    fill="#2196F3" />
            </g>

        </symbol>
        <symbol id="Group-3">
            <rect width="270" height="120" rx="4" fill="#F5F4FA" />
            <g clip-path="url(#clip0_75273_454)">
                <path d="M132.65 57.7351H134.982V68.2296H132.65V57.7351Z" fill="#2196F3" />
                <path d="M141.978 62.3993H144.31V68.2296H141.978V62.3993Z" fill="#2196F3" />
                <path d="M123.321 65.8975H125.653V68.2296H123.321V65.8975Z" fill="#2196F3" />
                <path d="M116.325 64.7314H118.657V68.2295H116.325V64.7314Z" fill="#2196F3" />
                <path
                    d="M103.498 86.8865H159.469C161.401 86.8865 162.967 85.3202 162.967 83.3883V78.7241C162.967 76.7923 161.401 75.2259 159.469 75.2259H158.303V46.1469L164.926 39.8725C166.463 40.6303 168.324 40.1702 169.33 38.7816C170.337 37.3935 170.196 35.4821 168.997 34.2568C167.798 33.0316 165.89 32.8488 164.48 33.8241C163.07 34.8 162.569 36.6499 163.293 38.2037L158.303 42.9345V40.2443C158.303 38.3124 156.736 36.7461 154.805 36.7461H108.162C106.231 36.7461 104.664 38.3124 104.664 40.2443V75.2259H103.498C101.566 75.2259 100 76.7923 100 78.7241V83.3883C100 85.3202 101.566 86.8865 103.498 86.8865ZM166.465 35.58C167.109 35.58 167.631 36.1021 167.631 36.7461C167.631 37.39 167.109 37.9121 166.465 37.9121C165.821 37.9121 165.299 37.39 165.299 36.7461C165.299 36.1021 165.821 35.58 166.465 35.58ZM106.996 40.2443C106.996 39.6003 107.518 39.0782 108.162 39.0782H154.805C155.449 39.0782 155.971 39.6003 155.971 40.2443V45.1414L153.639 47.3573V42.5764C153.639 41.9324 153.116 41.4103 152.473 41.4103H110.495C109.851 41.4103 109.328 41.9324 109.328 42.5764V71.7278C109.328 72.3717 109.851 72.8938 110.495 72.8938H152.473C153.116 72.8938 153.639 72.3717 153.639 71.7278V50.5651L155.971 48.3554V75.2259H106.996V40.2443ZM117.491 55.403C115.913 55.3984 114.528 56.4495 114.108 57.9703C113.689 59.491 114.338 61.104 115.695 61.9091C117.051 62.7142 118.779 62.5121 119.913 61.4149L123.966 63.4487C124.437 63.6844 125.008 63.5739 125.358 63.1805L133.974 53.4871L142.444 59.8338C142.899 60.1743 143.533 60.1378 143.945 59.7478L151.306 52.7748V70.5617H111.661V43.7424H151.306V49.5619L143.056 57.3747L134.515 50.9716C134.03 50.6084 133.348 50.6767 132.944 51.1294L124.21 60.9571L120.945 59.3242C120.969 59.1841 120.983 59.0429 120.989 58.9012C120.989 56.9693 119.423 55.403 117.491 55.403ZM118.657 58.9012C118.657 59.5451 118.135 60.0672 117.491 60.0672C116.847 60.0672 116.325 59.5451 116.325 58.9012C116.325 58.2572 116.847 57.7351 117.491 57.7351C118.135 57.7351 118.657 58.2572 118.657 58.9012ZM125.653 77.5581H137.314V78.7241C137.314 79.3681 136.792 79.8902 136.148 79.8902H126.819C126.175 79.8902 125.653 79.3681 125.653 78.7241V77.5581ZM102.332 78.7241C102.332 78.0802 102.854 77.5581 103.498 77.5581H123.321V78.7241C123.321 80.656 124.887 82.2223 126.819 82.2223H136.148C138.08 82.2223 139.646 80.656 139.646 78.7241V77.5581H159.469C160.113 77.5581 160.635 78.0802 160.635 78.7241V83.3883C160.635 84.0323 160.113 84.5544 159.469 84.5544H103.498C102.854 84.5544 102.332 84.0323 102.332 83.3883V78.7241Z"
                    fill="#212121" />
            </g>
            <defs>
                <clipPath id="clip0_75273_454">
                    <rect width="70" height="70" fill="white" transform="translate(100 25)" />
                </clipPath>
            </defs>
        </symbol>
        <symbol id="Group-4">
            <rect width="270" height="120" rx="4" fill="#F5F4FA" />
            <path
                d="M169.943 34.8964C169.806 34.4751 169.442 34.1672 169.002 34.103L164.823 33.4951L162.953 29.7081C162.561 28.91 161.253 28.91 160.861 29.7081L158.991 33.4951L154.811 34.1031C154.372 34.1672 154.008 34.4742 153.869 34.8965C153.732 35.3188 153.845 35.7831 154.164 36.0924L157.189 39.0407L156.475 43.2034C156.401 43.6409 156.58 44.0831 156.938 44.3445C157.301 44.6082 157.775 44.6407 158.168 44.4331L161.906 42.4672L165.644 44.4331C165.815 44.5229 166.002 44.5672 166.188 44.5672C166.429 44.5672 166.671 44.4925 166.874 44.3443C167.233 44.0831 167.413 43.6408 167.337 43.2033L166.623 39.0405L169.648 36.0923C169.965 35.7819 170.08 35.3187 169.943 34.8964ZM164.556 37.7991C164.282 38.0662 164.155 38.4536 164.221 38.8316L164.638 41.2688L162.45 40.1184C162.28 40.0286 162.093 39.9843 161.906 39.9843C161.72 39.9843 161.534 40.0286 161.362 40.1184L159.174 41.2688L159.591 38.8316C159.657 38.4536 159.531 38.0675 159.256 37.7991L157.484 36.0724L159.932 35.7166C160.312 35.6617 160.64 35.4226 160.811 35.0783L161.905 32.8617L162.999 35.0783C163.17 35.4225 163.497 35.6617 163.878 35.7166L166.325 36.0724L164.556 37.7991Z"
                fill="#2196F3" />
            <path d="M157.167 69.8923H154.834V72.2257H157.167V69.8923Z" fill="#2196F3" />
            <path d="M157.167 74.5591H154.834V76.8925H157.167V74.5591Z" fill="#2196F3" />
            <path d="M159.5 72.2257H157.167V74.5591H159.5V72.2257Z" fill="#2196F3" />
            <path d="M154.834 72.2257H152.5V74.5591H154.834V72.2257Z" fill="#2196F3" />
            <path d="M149 82.7259H146.667V85.0593H149V82.7259Z" fill="#2196F3" />
            <path d="M149 87.3926H146.667V89.726H149V87.3926Z" fill="#2196F3" />
            <path d="M151.334 85.0593H149V87.3927H151.334V85.0593Z" fill="#2196F3" />
            <path d="M146.667 85.0593H144.333V87.3927H146.667V85.0593Z" fill="#2196F3" />
            <path d="M135 78.0592H132.667V80.3926H135V78.0592Z" fill="#2196F3" />
            <path d="M135 82.7259H132.667V85.0593H135V82.7259Z" fill="#2196F3" />
            <path d="M137.333 80.3925H135V82.7259H137.333V80.3925Z" fill="#2196F3" />
            <path d="M132.667 80.3925H130.333V82.7259H132.667V80.3925Z" fill="#2196F3" />
            <path d="M112.833 38.3918H110.5V40.7252H112.833V38.3918Z" fill="#2196F3" />
            <path d="M112.833 43.0587H110.5V45.3921H112.833V43.0587Z" fill="#2196F3" />
            <path d="M115.166 40.7252H112.833V43.0586H115.166V40.7252Z" fill="#2196F3" />
            <path d="M110.5 40.7252H108.166V43.0586H110.5V40.7252Z" fill="#2196F3" />
            <path
                d="M154.064 55.9738C153.435 55.1256 152.512 54.5797 151.464 54.4326C150.412 54.2833 149.373 54.5597 148.533 55.2026L145.795 57.3014L145.794 57.3026L141.643 60.4025L138.672 59.2194C143.969 56.8429 147.671 51.545 147.671 45.3942C147.671 37.0314 140.84 30.2274 132.444 30.2274C124.047 30.2274 117.216 37.0314 117.216 45.3942C117.216 48.4253 118.123 51.2439 119.666 53.6158L113.62 53.5633C113.617 53.5633 113.613 53.5633 113.61 53.5633C113.591 53.5633 113.576 53.5726 113.559 53.5738C113.443 53.5785 113.33 53.6018 113.219 53.6415C113.191 53.652 113.162 53.6579 113.135 53.6706C113.121 53.6765 113.107 53.6776 113.093 53.6846L106.021 57.1764C106.02 57.1764 106.018 57.1764 106.018 57.1775L101.877 59.1693C101.831 59.1891 101.784 59.2159 101.739 59.2462C100.088 60.3452 99.5257 62.5036 100.43 64.2676C100.912 65.2056 101.732 65.8963 102.74 66.2124C103.129 66.3337 103.525 66.3933 103.919 66.3933C104.553 66.3933 105.181 66.2381 105.756 65.9313L108.792 64.3167L113.744 61.7593L116.712 61.7418L104.808 73.5884C104.807 73.5896 104.806 73.5896 104.805 73.5907L101.876 76.5074C101.185 77.1958 100.804 78.1092 100.804 79.0835C100.804 80.0565 101.185 80.9723 101.876 81.6619C102.587 82.3689 103.521 82.7235 104.456 82.7235C105.392 82.7235 106.325 82.3689 107.038 81.6619L109.913 78.7988L113.721 75.9556L115.691 77.9179L111.838 81.7551C111.836 81.7564 111.835 81.7564 111.834 81.7575L108.906 84.6741C108.214 85.3625 107.833 86.2759 107.833 87.2502C107.833 88.2233 108.214 89.139 108.906 89.8286C109.616 90.5356 110.552 90.8903 111.486 90.8903C112.421 90.8903 113.357 90.5356 114.068 89.8286L116.998 86.912L121.684 82.2453C121.685 82.244 121.685 82.2429 121.687 82.2417L123.895 80.0542L123.887 80.046C123.901 80.032 123.921 80.0272 123.935 80.0122L135.235 67.6349L142.828 68.7152C142.883 68.7234 142.938 68.7269 142.993 68.7269C143.134 68.7269 143.27 68.6931 143.402 68.6429C143.441 68.629 143.474 68.6102 143.511 68.5916C143.553 68.5706 143.597 68.559 143.637 68.5322L150.666 63.8655C150.692 63.848 150.706 63.8199 150.73 63.8013C150.758 63.7792 150.793 63.7699 150.819 63.7453L153.6 61.1401C155.047 59.7841 155.247 57.5628 154.064 55.9738ZM104.66 63.8722C104.281 64.0752 103.851 64.1159 103.439 63.9854C103.03 63.8582 102.699 63.5793 102.505 63.2025C102.153 62.5164 102.357 61.6811 102.974 61.2296L105.848 59.8471L106.54 61.8689L106.83 62.7182L104.66 63.8722ZM112.31 59.874L108.923 61.6241L108.365 59.9907L107.963 58.8169L112.397 56.6282L112.31 59.874ZM145.34 45.3919C145.34 47.4009 144.861 49.2957 144.03 50.9907L134.883 46.8362C134.788 45.5821 134.137 44.4842 133.159 43.8005L136.361 33.1685C141.563 34.823 145.34 39.6752 145.34 45.3919ZM119.552 45.3919C119.552 38.3159 125.336 32.5583 132.446 32.5583C132.999 32.5583 133.54 32.6049 134.076 32.6726L130.943 43.0713C130.901 43.0701 130.862 43.0585 130.819 43.0585C128.56 43.0585 126.722 44.8901 126.722 47.1419C126.722 49.3936 128.56 51.2254 130.819 51.2254C132.337 51.2254 133.65 50.3866 134.358 49.1591L142.807 52.9975C140.456 56.1615 136.694 58.2255 132.446 58.2255C125.336 58.2255 119.552 52.4679 119.552 45.3919ZM132.581 47.1419C132.581 48.1068 131.79 48.8919 130.819 48.8919C129.847 48.8919 129.056 48.1068 129.056 47.1419C129.056 46.1771 129.847 45.3919 130.819 45.3919C131.79 45.3919 132.581 46.1771 132.581 47.1419ZM105.392 80.0074C104.875 80.5196 104.038 80.5185 103.523 80.0087C103.274 79.7601 103.138 79.4324 103.138 79.0835C103.138 78.7358 103.274 78.4079 103.523 78.1618L105.627 76.0652L107.489 77.9191L105.392 80.0074ZM112.422 88.1743C111.905 88.6865 111.068 88.6877 110.552 88.1755C110.303 87.927 110.167 87.5993 110.167 87.2503C110.167 86.9027 110.303 86.5748 110.552 86.3287L112.658 84.231L113.539 85.1073L114.521 86.0849L112.422 88.1743ZM120.038 80.5862C120.037 80.5873 120.036 80.5873 120.035 80.5885L116.174 84.4385L115.293 83.5623L114.311 82.5846L118.168 78.7451C118.168 78.7451 118.168 78.7451 118.168 78.744C118.169 78.7428 118.17 78.7428 118.172 78.7417C118.259 78.6542 118.314 78.5492 118.368 78.4454C118.383 78.415 118.412 78.3893 118.425 78.3579C118.461 78.2681 118.467 78.1713 118.481 78.0767C118.488 78.0229 118.511 77.9729 118.511 77.9179C118.511 77.8397 118.483 77.764 118.467 77.6869C118.453 77.6169 118.453 77.5456 118.426 77.4781C118.382 77.3684 118.306 77.2716 118.227 77.177C118.204 77.1513 118.196 77.1186 118.172 77.0942C118.172 77.0942 118.172 77.0942 118.17 77.0942C118.169 77.0931 118.169 77.0906 118.168 77.0895L114.653 73.5895C114.616 73.5521 114.568 73.537 114.526 73.5055C114.464 73.4577 114.404 73.4134 114.336 73.3795C114.269 73.3468 114.201 73.327 114.131 73.3082C114.057 73.2872 113.984 73.2709 113.906 73.265C113.835 73.2604 113.769 73.2674 113.697 73.2756C113.619 73.2849 113.546 73.2954 113.47 73.3199C113.396 73.3432 113.331 73.3793 113.264 73.4179C113.22 73.4424 113.171 73.4506 113.131 73.4809L109.251 76.3767L107.281 74.4143L112.529 69.1946L122.067 78.576L120.038 80.5862ZM134.954 65.2372C134.921 65.2325 134.889 65.2454 134.855 65.2431C134.77 65.2384 134.689 65.2443 134.603 65.2582C134.537 65.2699 134.474 65.2827 134.411 65.3049C134.336 65.3306 134.269 65.3656 134.2 65.4075C134.134 65.4472 134.075 65.4892 134.018 65.5417C133.99 65.5661 133.956 65.5779 133.93 65.6058L123.653 76.862L114.185 67.5506L120.382 61.3859C120.839 60.9309 120.841 60.1923 120.386 59.735C120.156 59.5052 119.854 59.392 119.552 59.3932V59.3921L114.698 59.4212L114.759 55.9049L121.549 55.9633C124.317 58.7937 128.176 60.5589 132.446 60.5589C133.403 60.5589 134.336 60.4598 135.245 60.2905C135.332 60.3605 135.419 60.4317 135.528 60.476L140.8 62.5761L141.133 64.235L141.523 66.1717L134.954 65.2372ZM143.794 65.6269L143.11 62.2189L146.274 59.8564L147.102 60.9554L148.344 62.605L143.794 65.6269ZM152.005 59.4341L150.173 61.1514L148.136 58.4471L149.954 57.0529C150.294 56.7917 150.722 56.6854 151.142 56.7403C151.564 56.7997 151.938 57.0203 152.192 57.3621C152.666 58.0003 152.585 58.8905 152.005 59.4341Z"
                fill="#212121" />
            <path
                d="M129.755 65.5651L125.067 60.8984C124.613 60.4446 123.876 60.4446 123.421 60.8984L118.734 65.5651C118.515 65.7856 118.391 66.0819 118.391 66.3922C118.391 66.7026 118.513 67.0001 118.734 67.2194L123.421 71.8861C123.648 72.1124 123.947 72.2256 124.244 72.2256C124.542 72.2256 124.84 72.1124 125.067 71.8861L129.755 67.2194C129.974 67.0001 130.099 66.7026 130.099 66.3922C130.099 66.0819 129.975 65.7844 129.755 65.5651ZM124.244 69.4128L121.211 66.3922L124.244 63.3717L127.279 66.3922L124.244 69.4128Z"
                fill="#212121" />
            <path
                d="M137.547 36.0923L136.983 38.358C137.138 38.3966 140.784 39.3462 140.784 43.0586H143.118C143.118 38.6461 139.474 36.5718 137.547 36.0923Z"
                fill="#212121" />
            <path d="M143.118 45.3919H140.784V47.7253H143.118V45.3919Z" fill="#212121" />


        </symbol>
        <symbol id="cliente1">
            <rect x="0.5" y="0.5" width="169" height="80" rx="3.5" stroke="#AFB1B8" />
            <g clip-path="url(#clip0_75273_666)">
                <path fill-rule="evenodd" clip-rule="evenodd"
                    d="M70 21.087L77.0078 27.7211L64 27.7134V59.9007H98V47.594L105 54.2208V21.087H70ZM97.6924 46.8153L77.8226 28.0049H97.6924V46.8153ZM91.5231 55.1925H69.3801V33.5449H70.9453V53.7267H91.5231V55.1925ZM74.6089 64.1861L73.791 65.8707L72.9731 64.1861H72.2871L73.481 66.4322V67.7408H74.1011V66.4322L75.2925 64.1861H74.6089ZM75.6367 67.7408L75.9248 66.9131H77.3018L77.5923 67.7408H78.2368L76.8916 64.1861H76.3374L74.9946 67.7408H75.6367ZM76.6133 64.9405L77.1284 66.4151H76.0981L76.6133 64.9405ZM79.8701 66.3297C79.7806 66.4664 79.7358 66.6169 79.7358 66.7813C79.7358 67.0808 79.8408 67.3241 80.0508 67.5113C80.2624 67.6968 80.5439 67.7896 80.8955 67.7896C81.2471 67.7896 81.5498 67.6944 81.8037 67.504L82.0039 67.7408H82.6924L82.1699 67.1231C82.375 66.8432 82.4775 66.4843 82.4775 66.0464H81.9624C81.9624 66.2857 81.9128 66.503 81.8135 66.6983L81.1274 65.8878L81.3691 65.712C81.54 65.5883 81.6629 65.4646 81.7378 65.3409C81.8127 65.2156 81.8501 65.0788 81.8501 64.9307C81.8501 64.7061 81.7671 64.5181 81.6011 64.3668C81.4367 64.2138 81.2251 64.1373 80.9663 64.1373C80.6798 64.1373 80.452 64.2186 80.2827 64.3814C80.1134 64.5425 80.0288 64.7623 80.0288 65.0406C80.0288 65.1545 80.0557 65.2725 80.1094 65.3946C80.1647 65.5167 80.2616 65.6648 80.3999 65.8389C80.1362 66.0277 79.9596 66.1913 79.8701 66.3297ZM81.4741 67.1158C81.3 67.2492 81.1128 67.316 80.9126 67.316C80.7352 67.316 80.5936 67.2647 80.4878 67.1622C80.382 67.0596 80.3291 66.9262 80.3291 66.7618C80.3291 66.5714 80.4268 66.4021 80.6221 66.254L80.6978 66.2003L81.4741 67.1158ZM80.8369 65.5411C80.6693 65.3344 80.5854 65.1627 80.5854 65.0259C80.5854 64.9071 80.6196 64.8087 80.688 64.7305C80.7563 64.6524 80.8483 64.6133 80.9639 64.6133C81.0713 64.6133 81.16 64.6467 81.23 64.7134C81.3 64.7785 81.335 64.8575 81.335 64.9503C81.335 65.0902 81.2845 65.205 81.1836 65.2945L81.1079 65.3555L80.8369 65.5411ZM86.623 67.4722C86.8672 67.259 87.0072 66.9628 87.043 66.5836H86.4277C86.3952 66.8375 86.3179 67.0189 86.1958 67.128C86.0737 67.237 85.8914 67.2916 85.6489 67.2916C85.3836 67.2916 85.1818 67.1907 85.0435 66.9888C84.9067 66.787 84.8384 66.494 84.8384 66.1099V65.795C84.8416 65.4158 84.9149 65.1285 85.0581 64.9332C85.203 64.7362 85.4097 64.6378 85.6782 64.6378C85.9093 64.6378 86.0843 64.6947 86.2031 64.8087C86.3236 64.921 86.3984 65.1049 86.4277 65.3604H87.043C87.0039 64.9714 86.8647 64.6703 86.6255 64.4571C86.3862 64.2439 86.0705 64.1373 85.6782 64.1373C85.3869 64.1373 85.1297 64.2064 84.9067 64.3448C84.6854 64.4831 84.5153 64.6801 84.3965 64.9356C84.2777 65.1911 84.2183 65.4866 84.2183 65.8218V66.1539C84.2231 66.481 84.2842 66.7683 84.4014 67.0157C84.5186 67.2631 84.6846 67.4543 84.8994 67.5894C85.1159 67.7229 85.3657 67.7896 85.6489 67.7896C86.0542 67.7896 86.3789 67.6838 86.623 67.4722ZM90.2534 66.9742C90.3739 66.7105 90.4341 66.4045 90.4341 66.0562V65.8585C90.4325 65.5118 90.3706 65.2082 90.2485 64.9478C90.1265 64.6858 89.9531 64.4856 89.7285 64.3472C89.5055 64.2073 89.2492 64.1373 88.9595 64.1373C88.6698 64.1373 88.4126 64.2081 88.188 64.3497C87.965 64.4896 87.7917 64.6923 87.668 64.9576C87.5459 65.2229 87.4849 65.5289 87.4849 65.8755V66.0757C87.4865 66.4159 87.5483 66.7162 87.6704 66.9766C87.7941 67.237 87.9683 67.438 88.1929 67.5797C88.4191 67.7196 88.6763 67.7896 88.9644 67.7896C89.2557 67.7896 89.5129 67.7196 89.7358 67.5797C89.9604 67.438 90.133 67.2362 90.2534 66.9742ZM89.5918 64.9649C89.7415 65.1749 89.8164 65.4768 89.8164 65.8707V66.0562C89.8164 66.4566 89.7423 66.761 89.5942 66.9693C89.4478 67.1776 89.2378 67.2818 88.9644 67.2818C88.6942 67.2818 88.4826 67.1752 88.3296 66.962C88.1782 66.7488 88.1025 66.4468 88.1025 66.0562V65.8511C88.1058 65.4686 88.1823 65.1732 88.332 64.9649C88.4834 64.7549 88.6925 64.65 88.9595 64.65C89.2329 64.65 89.4437 64.7549 89.5918 64.9649Z"
                    fill="#AFB1B8" />
            </g>
            <defs>
                <clipPath id="clip0_75273_666">
                    <rect width="106" height="52.8261" fill="white" transform="translate(32 14.087)" />
                </clipPath>
            </defs>
        </symbol>
        <symbol id="cliente2">
            <rect x="0.5" y="0.5" width="169" height="80" rx="3.5" stroke="#AFB1B8" />
            <g clip-path="url(#clip0_75273_674)">
                <path fill-rule="evenodd" clip-rule="evenodd"
                    d="M82.1136 20.0215H81.977C81.7671 20.0088 81.5571 20.0037 81.3471 19.9986H81.3471H81.3269H80.8918C80.4946 19.9986 80.0898 20.0088 79.6876 20.0291C79.6573 20.0269 79.6269 20.0269 79.5966 20.0291C75.9522 20.2356 72.3817 21.1465 69.0805 22.7119L68.6479 22.9204V45.0616L69.6598 44.7183C70.5477 44.4131 71.4938 44.1385 72.4728 43.8842C75.1193 43.2048 77.8367 42.8437 80.568 42.8085V45.7176C80.2062 45.7202 79.8546 45.7303 79.503 45.7481H79.4195C77.3175 45.8634 75.2317 46.1837 73.1913 46.7043C70.6072 47.3512 68.1143 48.3226 65.7716 49.5956V21.1989C68.2047 19.7797 70.8253 18.7138 73.5556 18.0329C75.9527 17.414 78.4169 17.0963 80.8918 17.087H81.3193C81.8303 17.0997 82.3287 17.1226 82.7967 17.1582C84.0297 17.2448 85.2528 17.4396 86.4521 17.7405V20.6038C85.2874 20.3325 84.1032 20.1539 82.9105 20.0698C82.8863 20.0678 82.8621 20.0657 82.8379 20.0636C82.5911 20.0426 82.344 20.0215 82.1136 20.0215ZM87.1528 22.9484C87.7877 22.9967 88.4455 23.0196 89.1108 23.0196C91.7125 23.01 94.3031 22.6778 96.8239 22.0304C99.4068 21.3809 101.899 20.4088 104.241 19.1365V47.0272C101.807 48.4455 99.1853 49.5113 96.4546 50.1931C94.0571 50.8097 91.5931 51.1265 89.1184 51.1365C87.2433 51.1517 85.3737 50.9313 83.553 50.4805V22.4093C83.983 22.5084 84.4257 22.6 84.876 22.6763C85.6147 22.8009 86.3939 22.8924 87.1528 22.9484ZM101.347 23.1645L100.335 23.5053C99.4042 23.818 98.4657 24.0978 97.5221 24.347C94.7749 25.0529 91.9514 25.4151 89.1158 25.4252C88.4556 25.4252 87.8485 25.4074 87.2616 25.3692L86.4546 25.3158V45.4048V48.0927L87.1477 48.1537C87.7903 48.2096 88.4531 48.2376 89.1209 48.2376C91.3544 48.2281 93.5781 47.9403 95.7412 47.3806C97.5223 46.9339 99.2552 46.3112 100.914 45.5218L101.347 45.3133V23.1645Z"
                    fill="#AFB1B8" />
                <path
                    d="M67.7371 59.2994C67.5917 59.1485 67.4163 59.0301 67.2224 58.9516C67.0284 58.8732 66.8203 58.8366 66.6114 58.8442C66.3888 58.8413 66.1678 58.8828 65.9613 58.9663C65.7719 59.0417 65.5998 59.1551 65.4553 59.2994C65.3125 59.4442 65.2013 59.6175 65.129 59.808C65.0497 60.0077 65.0101 60.2211 65.0126 60.4361V64.2301C65.0036 64.4975 65.0546 64.7634 65.1619 65.0083C65.2514 65.2027 65.3807 65.376 65.5413 65.5168C65.693 65.6445 65.871 65.7366 66.0625 65.7864C66.2469 65.8382 66.4376 65.8648 66.6291 65.8652C66.8404 65.8673 67.0495 65.8222 67.2413 65.733C67.4309 65.65 67.6028 65.5308 67.7473 65.3821C67.8881 65.2347 68.0005 65.0622 68.0786 64.8735C68.1597 64.6822 68.201 64.4762 68.2001 64.2683V63.8436H67.2084V64.1818C67.2114 64.2973 67.1916 64.4122 67.1502 64.52C67.1179 64.6008 67.0688 64.6736 67.006 64.7336C66.9446 64.7833 66.8742 64.8204 66.7986 64.843C66.7316 64.8653 66.6617 64.8773 66.5912 64.8786C66.5026 64.8889 66.413 64.8755 66.3312 64.8398C66.2495 64.804 66.1786 64.7473 66.1257 64.6751C66.0322 64.5227 65.9864 64.3455 65.9942 64.1666V60.6294C65.988 60.4332 66.0297 60.2385 66.1156 60.0623C66.1671 59.9822 66.2399 59.9183 66.3258 59.8778C66.4117 59.8374 66.5071 59.822 66.6013 59.8334C66.6868 59.8304 66.7717 59.8482 66.8488 59.8854C66.9259 59.9226 66.9929 59.9781 67.044 60.047C67.155 60.1927 67.213 60.3722 67.2084 60.5556V60.8837H68.19V60.4971C68.1919 60.2701 68.1507 60.0449 68.0685 59.8334C67.9953 59.6347 67.8825 59.453 67.7371 59.2994V59.2994Z"
                    fill="#AFB1B8" />
                <path
                    d="M73.6289 59.2561C73.3127 58.9891 72.9136 58.8416 72.5007 58.8391C72.2987 58.84 72.0984 58.8761 71.9087 58.9459C71.7161 59.0149 71.5384 59.1202 71.3851 59.2561C71.2208 59.4038 71.0897 59.585 71.0005 59.7876C70.9006 60.0194 70.8515 60.27 70.8563 60.5225V64.1614C70.8495 64.4174 70.8987 64.6718 71.0005 64.9065C71.0903 65.1022 71.2215 65.2758 71.3851 65.4151C71.5367 65.5558 71.7147 65.6648 71.9087 65.7355C72.0984 65.8053 72.2987 65.8414 72.5007 65.8423C72.7027 65.8419 72.9031 65.8058 73.0926 65.7355C73.29 65.6638 73.4719 65.5551 73.6289 65.4151C73.7871 65.2732 73.9145 65.1 74.0033 64.9065C74.1051 64.6718 74.1544 64.4174 74.1475 64.1614V60.5225C74.1524 60.27 74.1032 60.0194 74.0033 59.7876C73.9151 59.5871 73.7878 59.4064 73.6289 59.2561V59.2561ZM73.166 64.1614C73.1743 64.2584 73.1609 64.356 73.1268 64.4471C73.0926 64.5382 73.0386 64.6205 72.9687 64.6878C72.8377 64.7977 72.6725 64.8578 72.5019 64.8578C72.3313 64.8578 72.1662 64.7977 72.0352 64.6878C71.9652 64.6205 71.9112 64.5382 71.8771 64.4471C71.8429 64.356 71.8295 64.2584 71.8379 64.1614V60.5225C71.8295 60.4255 71.8429 60.3279 71.8771 60.2368C71.9112 60.1457 71.9652 60.0635 72.0352 59.9961C72.1662 59.8863 72.3313 59.8261 72.5019 59.8261C72.6725 59.8261 72.8377 59.8863 72.9687 59.9961C73.0386 60.0635 73.0926 60.1457 73.1268 60.2368C73.1609 60.3279 73.1743 60.4255 73.166 60.5225V64.1614Z"
                    fill="#AFB1B8" />
                <path
                    d="M81.3673 65.7864V58.8977H80.4136L79.1614 62.5442H79.1437L77.8813 58.8977H76.9377V65.7864H77.9218V61.5957H77.9395L78.9033 64.5582H79.3941L80.3655 61.5957H80.3832V65.7864H81.3673Z"
                    fill="#AFB1B8" />
                <path
                    d="M86.9581 59.3807C86.8065 59.2107 86.6153 59.0814 86.4015 59.0043C86.1712 58.9294 85.9302 58.8933 85.6881 58.8975H84.226V65.7863H85.2075V63.0959H85.7134C86.0197 63.1098 86.3244 63.0451 86.5988 62.9077C86.822 62.7838 87.0081 62.602 87.1377 62.3813C87.2512 62.1981 87.3277 61.9942 87.3628 61.7812C87.4014 61.522 87.4192 61.2601 87.4159 60.998C87.4255 60.6672 87.3932 60.3365 87.3198 60.0139C87.2543 59.7755 87.1299 59.5577 86.9581 59.3807V59.3807ZM86.4521 61.4812C86.4479 61.6059 86.4168 61.7282 86.361 61.8397C86.3049 61.9456 86.2162 62.0304 86.1081 62.0813C85.9627 62.1463 85.8041 62.1759 85.6451 62.1677H85.1974V59.8257H85.7033C85.8557 59.8182 86.0075 59.8479 86.146 59.9122C86.2475 59.9704 86.3281 60.0594 86.3762 60.1665C86.4299 60.2875 86.4591 60.418 86.4622 60.5504C86.4622 60.6954 86.4622 60.848 86.4622 61.0082C86.4622 61.1684 86.4723 61.3337 86.4622 61.4812H86.4521Z"
                    fill="#AFB1B8" />
                <path
                    d="M91.6077 58.8977H90.8032L89.2854 65.7864H90.2669L90.5553 64.3065H91.8935L92.1819 65.7864H93.1635L91.6077 58.8977ZM90.702 63.3681L91.1852 60.871H91.2029L91.6836 63.3681H90.702Z"
                    fill="#AFB1B8" />
                <path
                    d="M97.9497 63.0477H97.932L96.4496 58.8977H95.506V65.7864H96.4875V61.644H96.5078L98.0079 65.7864H98.9312V58.8977H97.9497V63.0477Z"
                    fill="#AFB1B8" />
                <path
                    d="M103.948 58.8977L103.158 61.6364H103.138L102.349 58.8977H101.309L102.657 62.8748V65.7864H103.639V62.8748L104.987 58.8977H103.948Z"
                    fill="#AFB1B8" />
            </g>
            <defs>
                <clipPath id="clip0_75273_674">
                    <rect width="106" height="52.8261" fill="white" transform="translate(32 14.087)" />
                </clipPath>
            </defs>
        </symbol>
        <symbol id="cliente3">
            <rect x="0.5" y="0.5" width="169" height="80" rx="3.5" stroke="#AFB1B8" />
            <path
                d="M68.4063 63.1885C68.4222 63.1888 68.4379 63.192 68.4524 63.1977C68.4669 63.2034 68.4799 63.2115 68.4908 63.2216L68.7089 63.4301C68.5396 63.5989 68.3304 63.7338 68.0955 63.8258C67.8204 63.9261 67.5239 63.9746 67.2257 63.9679C66.9455 63.973 66.6671 63.9278 66.4078 63.8353C66.1739 63.7503 65.9638 63.6226 65.7916 63.4609C65.6159 63.2932 65.4805 63.0967 65.3935 62.8828C65.2982 62.6445 65.2512 62.3936 65.2545 62.1413C65.2506 61.8873 65.3015 61.635 65.4044 61.3973C65.4997 61.1821 65.6433 60.9856 65.827 60.8192C66.0132 60.6561 66.2359 60.5279 66.4814 60.4425C66.7499 60.3521 67.0359 60.307 67.3239 60.3098C67.5914 60.3042 67.8575 60.3453 68.1064 60.4307C68.3223 60.5121 68.5206 60.6251 68.6926 60.7647L68.5099 60.9874C68.4973 61.0031 68.4816 61.0168 68.4635 61.0277C68.442 61.0406 68.4159 61.0464 68.3899 61.0443C68.3616 61.0426 68.3343 61.0344 68.3109 61.0206L68.2127 60.9614L68.0764 60.8856C68.0175 60.8574 67.9565 60.8329 67.8937 60.8121C67.8128 60.787 67.7299 60.7672 67.6456 60.7529C67.5386 60.7358 67.4299 60.7278 67.3211 60.7292C67.1138 60.7269 66.908 60.7608 66.7159 60.8287C66.5367 60.8916 66.375 60.9869 66.2415 61.1083C66.1055 61.2373 66.0007 61.3888 65.9334 61.5537C65.8566 61.7423 65.8187 61.9412 65.8216 62.1413C65.8183 62.3444 65.8561 62.5465 65.9334 62.7383C65.9999 62.9018 66.1027 63.0523 66.236 63.1814C66.3609 63.3017 66.5157 63.3956 66.6886 63.4562C66.8666 63.5203 67.0576 63.5525 67.2503 63.551C67.3615 63.5524 67.4728 63.5461 67.5829 63.532C67.7627 63.5129 67.9351 63.4587 68.0873 63.3733C68.1636 63.3295 68.2356 63.2804 68.3027 63.2264C68.3307 63.2031 68.3676 63.1896 68.4063 63.1885V63.1885Z"
                fill="#AFB1B8" />
            <path
                d="M74.7044 62.1408C74.7078 62.3922 74.6579 62.642 74.5572 62.8776C74.4684 63.0914 74.3284 63.2863 74.1465 63.4497C73.9646 63.613 73.745 63.741 73.5021 63.8252C72.9683 64.0022 72.3782 64.0022 71.8444 63.8252C71.603 63.7397 71.3848 63.6114 71.2037 63.4486C71.0219 63.2822 70.8809 63.0856 70.7893 62.8705C70.5929 62.3933 70.5929 61.8718 70.7893 61.3946C70.8823 61.1794 71.0231 60.9822 71.2037 60.8142C71.3864 60.6564 71.6045 60.533 71.8444 60.4517C72.3775 60.2716 72.969 60.2716 73.5021 60.4517C73.7443 60.5372 73.9634 60.6655 74.1455 60.8284C74.325 60.9931 74.465 61.1872 74.5572 61.3993C74.6582 61.6366 74.7081 61.8879 74.7044 62.1408ZM74.1319 62.1408C74.1362 61.9398 74.1011 61.7395 74.0283 61.5486C73.9672 61.385 73.8679 61.2342 73.7366 61.1056C73.6087 60.9839 73.4513 60.8884 73.2758 60.826C72.8879 60.6965 72.4586 60.6965 72.0707 60.826C71.8952 60.8884 71.7378 60.9839 71.6099 61.1056C71.4768 61.2335 71.3764 61.3845 71.3155 61.5486C71.1768 61.9342 71.1768 62.3475 71.3155 62.7331C71.377 62.897 71.4773 63.0479 71.6099 63.1761C71.7379 63.2971 71.8953 63.3918 72.0707 63.4533C72.4593 63.5795 72.8872 63.5795 73.2758 63.4533C73.4512 63.3918 73.6086 63.2971 73.7366 63.1761C73.8673 63.0471 73.9665 62.8964 74.0283 62.7331C74.1015 62.5423 74.1365 62.342 74.1319 62.1408V62.1408Z"
                fill="#AFB1B8" />
            <path
                d="M79.0013 62.7617L79.0586 62.8944C79.0804 62.847 79.0995 62.8044 79.1213 62.7617C79.1421 62.7172 79.1657 62.6737 79.1922 62.6315L80.5854 60.4309C80.6127 60.393 80.6372 60.3693 80.6645 60.3622C80.7015 60.3524 80.7403 60.3484 80.779 60.3503H81.1907V63.9295H80.7026V61.2978C80.7026 61.2647 80.7026 61.2268 80.7026 61.1865C80.7 61.1455 80.7 61.1044 80.7026 61.0633L79.3012 63.2947C79.2834 63.3281 79.255 63.3564 79.2192 63.3761C79.1834 63.3959 79.1418 63.4063 79.0995 63.406H79.0204C78.9779 63.4066 78.9362 63.3963 78.9004 63.3765C78.8646 63.3568 78.8362 63.3283 78.8186 63.2947L77.3763 61.0491C77.3763 61.0918 77.3763 61.1344 77.3763 61.177C77.3763 61.2197 77.3763 61.2576 77.3763 61.2907V63.9224H76.9047V60.3503H77.3164C77.355 60.3484 77.3938 60.3524 77.4309 60.3622C77.4647 60.3767 77.4916 60.401 77.5072 60.4309L78.9304 62.6338C78.9584 62.6745 78.9821 62.7174 79.0013 62.7617V62.7617Z"
                fill="#AFB1B8" />
            <path
                d="M84.2443 62.5839V63.9246H83.699V60.3502H84.915C85.1446 60.3464 85.3735 60.3727 85.5939 60.4284C85.7704 60.4718 85.9341 60.5478 86.0738 60.651C86.1949 60.7478 86.2883 60.8679 86.3464 61.0016C86.4108 61.1474 86.4423 61.3026 86.4391 61.4588C86.4415 61.6155 86.4072 61.7711 86.3383 61.9159C86.2727 62.0531 86.172 62.1754 86.0438 62.2736C85.9039 62.3812 85.7395 62.4619 85.5612 62.5105C85.3489 62.5694 85.1269 62.5974 84.9041 62.5934L84.2443 62.5839ZM84.2443 62.2002H84.9041C85.0475 62.2018 85.1901 62.1834 85.3267 62.1457C85.4394 62.1127 85.5433 62.0604 85.6321 61.9917C85.714 61.9262 85.7775 61.8451 85.8175 61.7549C85.8621 61.6594 85.8844 61.5571 85.8829 61.454C85.8893 61.3547 85.8706 61.2553 85.8282 61.1628C85.7859 61.0704 85.7208 60.9871 85.6376 60.9187C85.4293 60.7774 85.1676 60.709 84.9041 60.7268H84.2443V62.2002Z"
                fill="#AFB1B8" />
            <path
                d="M91.5731 63.9294H91.1423C91.0991 63.9309 91.0566 63.9191 91.0223 63.8963C90.9914 63.874 90.9671 63.8455 90.9514 63.8133L90.5806 62.9487H88.7185L88.334 63.8133C88.3199 63.845 88.2964 63.8727 88.2659 63.8939C88.2312 63.9181 88.1877 63.9308 88.1432 63.9294H87.7124L89.3483 60.3499H89.9154L91.5731 63.9294ZM88.8739 62.6004H90.4116L89.7627 61.1435C89.7131 61.0339 89.6721 60.9215 89.64 60.8071L89.5773 60.9942C89.5582 61.0511 89.5364 61.1032 89.5173 61.1458L88.8739 62.6004Z"
                fill="#AFB1B8" />
            <path
                d="M93.9288 60.3665C93.9614 60.382 93.9894 60.4039 94.0106 60.4305L96.3962 63.1287C96.3962 63.0861 96.3962 63.0435 96.3962 63.0032C96.3962 62.9629 96.3962 62.9226 96.3962 62.8847V60.3499H96.8843V63.9294H96.6116C96.5729 63.9305 96.5345 63.9231 96.4998 63.9081C96.4662 63.8911 96.4365 63.8685 96.4126 63.8418L94.0297 61.1459C94.0323 61.1869 94.0323 61.2281 94.0297 61.2691C94.0297 61.3094 94.0297 61.3449 94.0297 61.3781V63.9294H93.5416V60.3499H93.8306C93.8644 60.3491 93.8979 60.3548 93.9288 60.3665V60.3665Z"
                fill="#AFB1B8" />
            <path
                d="M100.903 62.5058V63.9272H100.358V62.5058L98.85 60.3501H99.3381C99.3801 60.3479 99.4217 60.3588 99.4553 60.3809C99.485 60.4039 99.5099 60.4311 99.5289 60.4614L100.472 61.852C100.51 61.9112 100.543 61.9657 100.57 62.0178C100.598 62.07 100.62 62.1197 100.639 62.1695L100.71 62.0155C100.736 61.9592 100.767 61.9045 100.802 61.852L101.732 60.452C101.751 60.424 101.775 60.3985 101.803 60.3761C101.835 60.3516 101.877 60.3389 101.92 60.3406H102.414L100.903 62.5058Z"
                fill="#AFB1B8" />
            <path
                d="M78.7314 54.3431C78.9686 54.3692 79.2086 54.3905 79.4512 54.4094C83.1301 52.9796 86.2422 50.6393 88.3987 47.6812C90.5552 44.723 91.6603 41.2782 91.5759 37.7774L87.5216 34.2548C88.346 37.9821 87.9604 41.8352 86.408 45.3829C84.8555 48.9306 82.1976 52.0331 78.7314 54.3431V54.3431Z"
                fill="#AFB1B8" />
            <path
                d="M77.2837 54.1793L77.3928 54.1982C81.0966 51.8964 83.9205 48.682 85.4993 44.9708C87.078 41.2597 87.3389 37.2223 86.2483 33.3809L80.4737 28.3637C82.8094 32.4877 83.7495 37.1031 83.1848 41.6731C82.6201 46.2432 80.5737 50.58 77.2837 54.1793V54.1793Z"
                fill="#AFB1B8" />
            <path
                d="M96.8679 41.9136C95.8868 45.7602 93.5041 49.2293 90.0735 51.8059C89.0716 52.5626 87.9909 53.2366 86.8454 53.8194C89.6389 53.1061 92.2065 51.8448 94.3502 50.133C96.494 48.4212 98.1566 46.3044 99.21 43.9461L96.8679 41.9136Z"
                fill="#AFB1B8" />
            <path
                d="M95.9491 41.3472L92.6146 38.45C92.5509 41.7531 91.4701 44.9811 89.4846 47.7985C87.4991 50.6158 84.6814 52.9198 81.3243 54.4708H81.3406C82.0888 54.4706 82.8362 54.4318 83.5791 54.3547C86.7165 53.2421 89.488 51.472 91.6465 49.2023C93.8049 46.9326 95.2831 44.234 95.9491 41.3472V41.3472Z"
                fill="#AFB1B8" />
            <path
                d="M77.7663 26.2479L73.7883 22.787C70.2322 23.9809 67.1738 26.0799 65.0134 28.8091C62.8529 31.5383 61.6912 34.7706 61.6801 38.0829V38.0829C61.6934 41.743 63.1113 45.2947 65.7093 48.1758C68.3073 51.057 71.9371 53.103 76.0241 53.9901C79.6725 50.128 81.8086 45.3558 82.1219 40.3668C82.4352 35.3778 80.9094 30.432 77.7663 26.2479V26.2479Z"
                fill="#AFB1B8" />
            <path
                d="M105.14 40.8144C105.126 36.4719 103.134 32.3108 99.5997 29.2402C96.0656 26.1696 91.2764 24.439 86.2784 24.4265V24.4265C83.9688 24.4244 81.6789 24.7947 79.5249 25.5186L103.88 46.6797C104.714 44.8091 105.142 42.8203 105.14 40.8144V40.8144Z"
                fill="#AFB1B8" />

        </symbol>
        <symbol id="cliente4">
            <rect x="0.5" y="0.5" width="169" height="80" rx="3.5" stroke="#2196F3" />
            <path
                d="M56.1462 35.1899H56.1433C53.7453 35.1899 51.8013 36.9175 51.8013 39.0485V39.0511C51.8013 41.1822 53.7453 42.9098 56.1433 42.9098H56.1462C58.5442 42.9098 60.4882 41.1822 60.4882 39.0511V39.0485C60.4882 36.9175 58.5442 35.1899 56.1462 35.1899Z"
                fill="#2196F3" />
            <path
                d="M88.195 33.9563C88.1882 30.9963 86.8623 28.1593 84.5074 26.066C82.1525 23.9727 78.9604 22.7937 75.6297 22.787V22.787C72.298 22.7924 69.1045 23.9708 66.7484 26.0642C64.3922 28.1576 63.0655 30.9954 63.0587 33.9563V33.9563V50.2792C63.0587 50.2792 88.1922 47.7914 88.195 33.9589V33.9563Z"
                fill="#2196F3" />
            <path
                d="M43 55.6365C43.006 57.6961 43.9291 59.6698 45.5676 61.1264C47.2061 62.583 49.4267 63.404 51.7442 63.4101V63.4101C54.0612 63.4041 56.2814 62.5834 57.9197 61.1273C59.5581 59.6713 60.4816 57.6982 60.4884 55.639V55.639V44.2814C60.4884 44.2814 43 46.0136 43 55.6365ZM51.7442 57.6715C51.2913 57.6715 50.8486 57.5521 50.472 57.3285C50.0955 57.1049 49.802 56.7871 49.6287 56.4153C49.4554 56.0434 49.41 55.6342 49.4984 55.2395C49.5867 54.8448 49.8048 54.4822 50.125 54.1976C50.4453 53.913 50.8533 53.7192 51.2975 53.6406C51.7416 53.5621 52.202 53.6024 52.6205 53.7564C53.0389 53.9105 53.3965 54.1713 53.6481 54.5059C53.8997 54.8406 54.034 55.234 54.034 55.6365C54.0351 55.9044 53.9767 56.1698 53.8622 56.4176C53.7476 56.6654 53.5791 56.8906 53.3664 57.0804C53.1536 57.2702 52.9008 57.4207 52.6224 57.5235C52.3441 57.6262 52.0456 57.6791 51.7442 57.6791V57.6715Z"
                fill="#2196F3" />
            <path
                d="M67.7302 54.0283V58.2939H66.8513V54.0283H67.7302ZM69.4294 55.8506V56.5361H67.4899V55.8506H69.4294ZM69.6345 54.0283V54.7168H67.4899V54.0283H69.6345ZM73.6481 56.0615V56.2637C73.6481 56.5879 73.6042 56.8789 73.5163 57.1367C73.4284 57.3945 73.3044 57.6143 73.1442 57.7959C72.9841 57.9756 72.7927 58.1133 72.57 58.209C72.3493 58.3047 72.1042 58.3525 71.8347 58.3525C71.5671 58.3525 71.322 58.3047 71.0993 58.209C70.8786 58.1133 70.6872 57.9756 70.5251 57.7959C70.363 57.6143 70.237 57.3945 70.1472 57.1367C70.0593 56.8789 70.0153 56.5879 70.0153 56.2637V56.0615C70.0153 55.7354 70.0593 55.4443 70.1472 55.1885C70.235 54.9307 70.3591 54.7109 70.5192 54.5293C70.6813 54.3477 70.8727 54.209 71.0934 54.1133C71.3161 54.0176 71.5612 53.9697 71.8288 53.9697C72.0983 53.9697 72.3434 54.0176 72.5641 54.1133C72.7868 54.209 72.9782 54.3477 73.1384 54.5293C73.3005 54.7109 73.4255 54.9307 73.5134 55.1885C73.6032 55.4443 73.6481 55.7354 73.6481 56.0615ZM72.7604 56.2637V56.0557C72.7604 55.8291 72.7399 55.6299 72.6989 55.458C72.6579 55.2861 72.5974 55.1416 72.5173 55.0244C72.4372 54.9072 72.3395 54.8193 72.2243 54.7607C72.1091 54.7002 71.9772 54.6699 71.8288 54.6699C71.6804 54.6699 71.5485 54.7002 71.4333 54.7607C71.32 54.8193 71.2233 54.9072 71.1432 55.0244C71.0651 55.1416 71.0056 55.2861 70.9645 55.458C70.9235 55.6299 70.903 55.8291 70.903 56.0557V56.2637C70.903 56.4883 70.9235 56.6875 70.9645 56.8613C71.0056 57.0332 71.0661 57.1787 71.1462 57.2979C71.2263 57.415 71.3239 57.5039 71.4391 57.5645C71.5544 57.625 71.6862 57.6553 71.8347 57.6553C71.9831 57.6553 72.1149 57.625 72.2302 57.5645C72.3454 57.5039 72.4421 57.415 72.5202 57.2979C72.5983 57.1787 72.6579 57.0332 72.6989 56.8613C72.7399 56.6875 72.7604 56.4883 72.7604 56.2637ZM76.5016 57.1777C76.5016 57.1016 76.4899 57.0332 76.4665 56.9727C76.445 56.9102 76.404 56.8535 76.3434 56.8027C76.2829 56.75 76.1979 56.6982 76.0886 56.6475C75.9792 56.5967 75.8376 56.5439 75.6638 56.4893C75.4704 56.4268 75.2868 56.3564 75.113 56.2783C74.9411 56.2002 74.7888 56.1094 74.6559 56.0059C74.5251 55.9004 74.4216 55.7783 74.3454 55.6396C74.2712 55.501 74.2341 55.3398 74.2341 55.1562C74.2341 54.9785 74.2731 54.8174 74.3513 54.6729C74.4294 54.5264 74.5388 54.4014 74.6794 54.2979C74.82 54.1924 74.986 54.1113 75.1774 54.0547C75.3708 53.998 75.5827 53.9697 75.8132 53.9697C76.1276 53.9697 76.402 54.0264 76.6364 54.1396C76.8708 54.2529 77.0524 54.4082 77.1813 54.6055C77.3122 54.8027 77.3776 55.0283 77.3776 55.2822H76.5046C76.5046 55.1572 76.4782 55.0479 76.4255 54.9541C76.3747 54.8584 76.2966 54.7832 76.1911 54.7285C76.0876 54.6738 75.9567 54.6465 75.7985 54.6465C75.6462 54.6465 75.5192 54.6699 75.4177 54.7168C75.3161 54.7617 75.2399 54.8232 75.1891 54.9014C75.1384 54.9775 75.113 55.0635 75.113 55.1592C75.113 55.2314 75.1306 55.2969 75.1657 55.3555C75.2028 55.4141 75.2575 55.4688 75.3298 55.5195C75.402 55.5703 75.4909 55.6182 75.5964 55.6631C75.7018 55.708 75.8239 55.752 75.9626 55.7949C76.195 55.8652 76.3991 55.9443 76.5749 56.0322C76.7526 56.1201 76.9011 56.2188 77.0202 56.3281C77.1393 56.4375 77.2292 56.5615 77.2897 56.7002C77.3503 56.8389 77.3806 56.9961 77.3806 57.1719C77.3806 57.3574 77.3444 57.5234 77.2722 57.6699C77.1999 57.8164 77.0954 57.9404 76.9587 58.042C76.822 58.1436 76.6589 58.2207 76.4694 58.2734C76.28 58.3262 76.0681 58.3525 75.8337 58.3525C75.6227 58.3525 75.4147 58.3252 75.2097 58.2705C75.0046 58.2139 74.8181 58.1289 74.6501 58.0156C74.4841 57.9023 74.3513 57.7578 74.2516 57.582C74.152 57.4062 74.1022 57.1982 74.1022 56.958H74.9841C74.9841 57.0908 75.0046 57.2031 75.0456 57.2949C75.0866 57.3867 75.1442 57.4609 75.2184 57.5176C75.2946 57.5742 75.3845 57.6152 75.488 57.6406C75.5934 57.666 75.7087 57.6787 75.8337 57.6787C75.986 57.6787 76.111 57.6572 76.2087 57.6143C76.3083 57.5713 76.3815 57.5117 76.4284 57.4355C76.4772 57.3594 76.5016 57.2734 76.5016 57.1777ZM79.8854 54.0283V58.2939H79.0095V54.0283H79.8854ZM81.1979 54.0283V54.7168H77.7175V54.0283H81.1979ZM84.5612 57.6084V58.2939H82.2907V57.6084H84.5612ZM82.5778 54.0283V58.2939H81.6989V54.0283H82.5778ZM84.2653 55.7656V56.4336H82.2907V55.7656H84.2653ZM84.5583 54.0283V54.7168H82.2907V54.0283H84.5583ZM85.0739 54.0283H86.6647C86.9909 54.0283 87.2712 54.0771 87.5056 54.1748C87.7419 54.2725 87.9235 54.417 88.0505 54.6084C88.1774 54.7998 88.2409 55.0352 88.2409 55.3145C88.2409 55.543 88.2018 55.7393 88.1237 55.9033C88.0475 56.0654 87.9391 56.2012 87.7985 56.3105C87.6599 56.418 87.4968 56.5039 87.3093 56.5684L87.0309 56.7148H85.6481L85.6423 56.0293H86.6706C86.8249 56.0293 86.9528 56.002 87.0544 55.9473C87.1559 55.8926 87.2321 55.8164 87.2829 55.7188C87.3356 55.6211 87.362 55.5078 87.362 55.3789C87.362 55.2422 87.3366 55.124 87.2858 55.0244C87.235 54.9248 87.1579 54.8486 87.0544 54.7959C86.9509 54.7432 86.821 54.7168 86.6647 54.7168H85.9528V58.2939H85.0739V54.0283ZM87.4587 58.2939L86.486 56.3926L87.4147 56.3867L88.3991 58.2529V58.2939H87.4587ZM92.0729 56.7734H90.986V56.0879H92.0729C92.2409 56.0879 92.3776 56.0605 92.4831 56.0059C92.5886 55.9492 92.6657 55.8711 92.7145 55.7715C92.7634 55.6719 92.7878 55.5596 92.7878 55.4346C92.7878 55.3076 92.7634 55.1895 92.7145 55.0801C92.6657 54.9707 92.5886 54.8828 92.4831 54.8164C92.3776 54.75 92.2409 54.7168 92.0729 54.7168H91.2907V58.2939H90.4118V54.0283H92.0729C92.4069 54.0283 92.6931 54.0889 92.9313 54.21C93.1716 54.3291 93.3552 54.4941 93.4821 54.7051C93.6091 54.916 93.6725 55.1572 93.6725 55.4287C93.6725 55.7041 93.6091 55.9424 93.4821 56.1436C93.3552 56.3447 93.1716 56.5 92.9313 56.6094C92.6931 56.7188 92.4069 56.7734 92.0729 56.7734ZM97.1413 57.6084V58.2939H94.8708V57.6084H97.1413ZM95.1579 54.0283V58.2939H94.279V54.0283H95.1579ZM96.8454 55.7656V56.4336H94.8708V55.7656H96.8454ZM97.1384 54.0283V54.7168H94.8708V54.0283H97.1384ZM99.6198 54.0283V58.2939H98.7438V54.0283H99.6198ZM100.932 54.0283V54.7168H97.4518V54.0283H100.932ZM104.296 57.6084V58.2939H102.025V57.6084H104.296ZM102.312 54.0283V58.2939H101.433V54.0283H102.312ZM104 55.7656V56.4336H102.025V55.7656H104ZM104.293 54.0283V54.7168H102.025V54.0283H104.293ZM104.808 54.0283H106.399C106.725 54.0283 107.006 54.0771 107.24 54.1748C107.476 54.2725 107.658 54.417 107.785 54.6084C107.912 54.7998 107.975 55.0352 107.975 55.3145C107.975 55.543 107.936 55.7393 107.858 55.9033C107.782 56.0654 107.674 56.2012 107.533 56.3105C107.394 56.418 107.231 56.5039 107.044 56.5684L106.765 56.7148H105.383L105.377 56.0293H106.405C106.559 56.0293 106.687 56.002 106.789 55.9473C106.89 55.8926 106.966 55.8164 107.017 55.7188C107.07 55.6211 107.096 55.5078 107.096 55.3789C107.096 55.2422 107.071 55.124 107.02 55.0244C106.969 54.9248 106.892 54.8486 106.789 54.7959C106.685 54.7432 106.555 54.7168 106.399 54.7168H105.687V58.2939H104.808V54.0283ZM107.193 58.2939L106.22 56.3926L107.149 56.3867L108.133 58.2529V58.2939H107.193ZM110.873 57.1777C110.873 57.1016 110.861 57.0332 110.838 56.9727C110.816 56.9102 110.775 56.8535 110.715 56.8027C110.654 56.75 110.569 56.6982 110.46 56.6475C110.35 56.5967 110.209 56.5439 110.035 56.4893C109.841 56.4268 109.658 56.3564 109.484 56.2783C109.312 56.2002 109.16 56.1094 109.027 56.0059C108.896 55.9004 108.793 55.7783 108.716 55.6396C108.642 55.501 108.605 55.3398 108.605 55.1562C108.605 54.9785 108.644 54.8174 108.722 54.6729C108.8 54.5264 108.91 54.4014 109.05 54.2979C109.191 54.1924 109.357 54.1113 109.549 54.0547C109.742 53.998 109.954 53.9697 110.184 53.9697C110.499 53.9697 110.773 54.0264 111.008 54.1396C111.242 54.2529 111.424 54.4082 111.552 54.6055C111.683 54.8027 111.749 55.0283 111.749 55.2822H110.876C110.876 55.1572 110.849 55.0479 110.797 54.9541C110.746 54.8584 110.668 54.7832 110.562 54.7285C110.459 54.6738 110.328 54.6465 110.17 54.6465C110.017 54.6465 109.89 54.6699 109.789 54.7168C109.687 54.7617 109.611 54.8232 109.56 54.9014C109.509 54.9775 109.484 55.0635 109.484 55.1592C109.484 55.2314 109.502 55.2969 109.537 55.3555C109.574 55.4141 109.629 55.4688 109.701 55.5195C109.773 55.5703 109.862 55.6182 109.967 55.6631C110.073 55.708 110.195 55.752 110.334 55.7949C110.566 55.8652 110.77 55.9443 110.946 56.0322C111.124 56.1201 111.272 56.2188 111.391 56.3281C111.51 56.4375 111.6 56.5615 111.661 56.7002C111.721 56.8389 111.752 56.9961 111.752 57.1719C111.752 57.3574 111.716 57.5234 111.643 57.6699C111.571 57.8164 111.466 57.9404 111.33 58.042C111.193 58.1436 111.03 58.2207 110.841 58.2734C110.651 58.3262 110.439 58.3525 110.205 58.3525C109.994 58.3525 109.786 58.3252 109.581 58.2705C109.376 58.2139 109.189 58.1289 109.021 58.0156C108.855 57.9023 108.722 57.7578 108.623 57.582C108.523 57.4062 108.473 57.1982 108.473 56.958H109.355C109.355 57.0908 109.376 57.2031 109.417 57.2949C109.458 57.3867 109.515 57.4609 109.59 57.5176C109.666 57.5742 109.756 57.6152 109.859 57.6406C109.965 57.666 110.08 57.6787 110.205 57.6787C110.357 57.6787 110.482 57.6572 110.58 57.6143C110.679 57.5713 110.753 57.5117 110.799 57.4355C110.848 57.3594 110.873 57.2734 110.873 57.1777Z"
                fill="#2196F3" />
            </symbol>
        <symbol id="cliente5">
            <rect x="0.5" y="0.5" width="169" height="80" rx="3.5" stroke="#AFB1B8" />
            <g clip-path="url(#clip0_75273_731)">
                <path
                    d="M58.7569 58.8221C59.0006 59.0983 59.1304 59.4441 59.1236 59.7991C59.136 60.0307 59.0914 60.2618 58.993 60.4754C58.8947 60.689 58.7451 60.8797 58.5554 61.0332C58.082 61.3605 57.4956 61.5205 56.9037 61.4838H54V55.2924H56.8442C57.4057 55.2582 57.9626 55.4036 58.42 55.7037C58.6036 55.8445 58.7491 56.0224 58.8448 56.2235C58.9406 56.4245 58.984 56.6431 58.9716 56.8622C58.9883 57.2037 58.8712 57.5395 58.6413 57.8089C58.4206 58.0549 58.1156 58.2254 57.7758 58.2928C58.161 58.3572 58.5087 58.5448 58.7569 58.8221V58.8221ZM55.3511 57.8875H56.5667C56.843 57.9062 57.1174 57.8332 57.3397 57.6819C57.431 57.6061 57.502 57.5122 57.5473 57.4073C57.5925 57.3024 57.6108 57.1893 57.6007 57.0769C57.6093 56.9649 57.5906 56.8526 57.5461 56.748C57.5015 56.6434 57.4322 56.5491 57.343 56.472C57.1141 56.3164 56.8312 56.2422 56.5469 56.2633H55.3511V57.8875ZM57.4587 60.2619C57.5562 60.1843 57.6329 60.0872 57.6828 59.9781C57.7326 59.869 57.7543 59.7508 57.7461 59.6328C57.7535 59.5133 57.7309 59.3939 57.6799 59.2838C57.6289 59.1737 57.551 59.0757 57.4521 58.9976C57.2142 58.8361 56.9217 58.7569 56.6262 58.7738H55.3511V60.4766H56.6427C56.9334 60.492 57.2212 60.4163 57.4587 60.2619V60.2619Z"
                    fill="#AFB1B8" />
                <path
                    d="M64.5709 61.4839L62.9886 59.0641H62.394V61.4839H61.033V55.2924H63.6096C64.2591 55.2509 64.9012 55.4393 65.4034 55.8187C65.7635 56.1547 65.9808 56.5975 66.0159 57.0672C66.051 57.537 65.9018 58.0027 65.595 58.3806C65.2771 58.714 64.8428 58.9364 64.3661 59.0097L66.0508 61.4839H64.5709ZM62.394 58.2203H63.5072C64.2802 58.2203 64.6667 57.9077 64.6667 57.2826C64.6746 57.155 64.6534 57.0272 64.6045 56.9074C64.5556 56.7877 64.48 56.6785 64.3826 56.5869C64.1383 56.4009 63.8237 56.3107 63.5072 56.3359H62.3807L62.394 58.2203Z"
                    fill="#AFB1B8" />
                <path
                    d="M72.0102 60.2376H69.2981L68.8191 61.4837H67.392L69.8828 55.3618H71.4255L73.9063 61.4837H72.4793L72.0102 60.2376ZM71.6468 59.2999L70.6558 56.6866L69.6648 59.2999H71.6468Z"
                    fill="#AFB1B8" />
                <path
                    d="M81.3224 61.4838H79.9713L76.9421 57.2735V61.4838H75.5943V55.2924H76.9421L79.9713 59.5269V55.2924H81.3224V61.4838Z"
                    fill="#AFB1B8" />
                <path
                    d="M89.0326 60.0018C88.7532 60.4692 88.3276 60.8495 87.8103 61.0937C87.2222 61.3657 86.5695 61.4998 85.9109 61.4839H83.506V55.2924H85.9109C86.5684 55.2767 87.2202 55.4075 87.8103 55.6735C88.3275 55.9122 88.7536 56.2886 89.0326 56.7533C89.3107 57.2569 89.4556 57.8133 89.4556 58.3776C89.4556 58.9418 89.3107 59.4982 89.0326 60.0018V60.0018ZM87.4866 59.8536C87.8722 59.4423 88.0842 58.9181 88.0842 58.376C88.0842 57.834 87.8722 57.3098 87.4866 56.8985C87.0205 56.5259 86.4127 56.3368 85.7952 56.3722H84.8571V60.3799H85.7952C86.4127 60.4153 87.0205 60.2261 87.4866 59.8536Z"
                    fill="#AFB1B8" />
                <path
                    d="M72.8558 20.8536C72.8558 20.8536 90.2945 26.8818 89.9245 35.6049V50.3591C89.9245 50.3591 72.4991 44.328 72.8624 35.6049L72.8558 20.8536Z"
                    fill="#AFB1B8" />
                <path
                    d="M105.46 46.9049C108.754 44.8296 112.563 43.5442 116.54 43.1664V38.5478C111.958 40.1648 108.071 43.0967 105.46 46.9049V46.9049Z"
                    fill="#AFB1B8" />
                <path
                    d="M103.482 48.2964C106.177 43.3265 110.85 39.4914 116.54 37.58V24.2715C116.54 24.2715 91.705 32.8585 92.2303 45.2808V66.287C92.2303 66.287 93.3369 65.9029 95.0778 65.183C95.0778 64.5115 95.0778 63.834 95.1571 63.1535C95.6711 57.3865 98.6654 52.0424 103.482 48.2964V48.2964Z"
                    fill="#AFB1B8" />
                <path
                    d="M101.12 56.1C101.25 54.6432 101.541 53.2021 101.989 51.799C98.9896 55.034 97.1734 59.0484 96.7956 63.2775C96.7592 63.6768 96.7394 64.076 96.7295 64.4874C98.14 63.8673 99.7818 63.093 101.506 62.1826C101.066 60.1817 100.936 58.1341 101.12 56.1V56.1Z"
                    fill="#AFB1B8" />
                <path
                    d="M102.107 56.1756C101.942 58.0159 102.045 59.8682 102.415 61.6835C109.2 57.9662 116.824 52.2224 116.53 45.2808V44.6759C111.682 45.1726 107.147 47.1129 103.62 50.1989C102.795 52.1113 102.285 54.1257 102.107 56.1756V56.1756Z"
                    fill="#AFB1B8" />
            </g>
            <defs>
                <clipPath id="clip0_75273_731">
                    <rect width="106" height="52.8261" fill="white" transform="translate(32 14.087)" />
                </clipPath>
            </defs>
            </symbol>
        <symbol id="cliente6">
            <path
                d="M53.425 27.4952C52.9819 26.9054 52.7699 26.2083 52.8203 25.5066V22.6234C52.8203 21.7396 53.0207 21.0679 53.4216 20.6084C53.8224 20.1489 54.511 19.9201 55.4871 19.9221C56.4044 19.9221 57.0555 20.1176 57.4405 20.5087C57.8605 21.0077 58.0648 21.6178 58.018 22.2333V22.9108H56.3772V22.2245C56.383 21.9999 56.3671 21.7752 56.3296 21.5528C56.306 21.4008 56.2234 21.2602 56.0952 21.154C55.9267 21.0394 55.7145 20.9839 55.5007 20.9985C55.2759 20.984 55.0529 21.0426 54.8756 21.1628C54.7327 21.2804 54.6374 21.4347 54.6038 21.6027C54.5567 21.838 54.5351 22.0766 54.5393 22.3154V25.8146C54.5134 26.1521 54.5858 26.4899 54.7499 26.7971C54.8315 26.9011 54.9448 26.9835 55.0774 27.0353C55.2099 27.087 55.3564 27.1061 55.5007 27.0904C55.7109 27.1054 55.9195 27.0485 56.0816 26.9321C56.2153 26.8175 56.3013 26.668 56.3262 26.5068C56.3645 26.2746 56.3816 26.0402 56.3772 25.8058V25.096H58.018V25.7442C58.0641 26.3857 57.8648 27.0226 57.4507 27.5568C57.0736 27.985 56.4315 28.1991 55.4871 28.1991C54.5427 28.1991 53.8292 27.9704 53.425 27.4952Z"
                fill="#AFB1B8" />
            <path
                d="M60.2569 27.5245C59.8424 27.0758 59.6352 26.4217 59.6352 25.5565V22.5237C59.6352 21.6672 59.8424 21.019 60.2569 20.5791C60.6713 20.1391 61.3644 19.9201 62.3359 19.9221C63.3007 19.9221 63.9904 20.1411 64.4048 20.5791C64.8193 21.019 65.0299 21.6672 65.0299 22.5237V25.5565C65.0299 26.4129 64.8193 27.0699 64.398 27.5216C63.9768 27.9733 63.2906 28.1991 62.3359 28.1991C61.3813 28.1991 60.6747 27.9704 60.2569 27.5245ZM63.1003 26.7971C63.2487 26.516 63.3163 26.2081 63.2974 25.8996V22.1864C63.3164 21.8839 63.2499 21.5819 63.1037 21.3065C63.0205 21.2003 62.9043 21.1166 62.7686 21.0647C62.6328 21.0128 62.4829 20.995 62.3359 21.0132C62.1885 20.9954 62.0383 21.0135 61.9021 21.0653C61.7659 21.1171 61.6491 21.2006 61.5648 21.3065C61.4154 21.5811 61.3477 21.8835 61.3678 22.1864V25.9172C61.3471 26.2258 61.4148 26.5341 61.5648 26.8147C61.6604 26.9094 61.7785 26.9852 61.9109 27.0371C62.0433 27.0891 62.1871 27.116 62.3326 27.116C62.478 27.116 62.6218 27.0891 62.7542 27.0371C62.8866 26.9852 63.0047 26.9094 63.1003 26.8147V26.7971Z"
                fill="#AFB1B8" />
            <path
                d="M67.0035 20.0106H68.7701L70.0984 25.6062L71.4573 20.0106H73.1763L73.3496 28.0873H72.079L71.9431 22.474L70.6318 28.0873H69.6126L68.2537 22.4535L68.128 28.0873H66.8439L67.0035 20.0106Z"
                fill="#AFB1B8" />
            <path
                d="M75.3302 20.0106H78.0819C79.6673 20.0106 80.4599 20.775 80.4599 22.3039C80.4599 23.7684 79.6254 24.4996 77.9562 24.4976H77.0186V28.0873H75.32L75.3302 20.0106ZM77.6811 23.4624C77.8489 23.4808 78.0193 23.4675 78.1806 23.4234C78.3419 23.3794 78.4902 23.3056 78.6153 23.2072C78.8101 22.9344 78.896 22.6141 78.8599 22.2952C78.8688 22.0488 78.8414 21.8024 78.7783 21.562C78.7541 21.4817 78.7116 21.4063 78.6533 21.3404C78.5949 21.2744 78.522 21.2191 78.4386 21.1778C78.2028 21.0801 77.9422 21.0357 77.6811 21.0487H77.022V23.4624H77.6811Z"
                fill="#AFB1B8" />
            <path
                d="M82.9094 20.0106H84.7337L86.6055 28.0873H85.0225L84.6522 26.225H83.0249L82.6444 28.0873H81.0376L82.9094 20.0106ZM84.4687 25.2895L83.8334 21.8992L83.1982 25.2895H84.4687Z"
                fill="#AFB1B8" />
            <path
                d="M88.1173 20.0106H89.3063L91.5825 24.6179V20.0106H92.9923V28.0873H91.861L89.5713 23.2776V28.0873H88.1139L88.1173 20.0106Z"
                fill="#AFB1B8" />
            <path
                d="M96.2945 25.0077L94.4022 20.0219H95.9955L97.1506 23.2245L98.2343 20.0219H99.7936L97.9251 25.0077V28.0872H96.2945V25.0077Z"
                fill="#AFB1B8" />
            <path
                d="M56.0477 31.6185V32.0409H54.6617V35.3228H54.0807V32.0409H52.6879V31.6185H56.0477Z"
                fill="#AFB1B8" />
            <path
                d="M60.3927 35.3231H59.9442C59.8987 35.3256 59.8538 35.313 59.8185 35.2879C59.7846 35.2664 59.7587 35.2369 59.7438 35.2029L59.3429 34.323H57.4201L57.0192 35.2029C57.0078 35.2397 56.9869 35.2738 56.958 35.3026C56.9225 35.3271 56.8778 35.3397 56.8324 35.3378H56.3839L58.0825 31.6337H58.6737L60.3927 35.3231ZM57.5797 33.9476H59.1833L58.5038 32.4402C58.4537 32.3262 58.4117 32.2096 58.3781 32.0912C58.3543 32.1616 58.3339 32.229 58.3136 32.2877L58.2524 32.4431L57.5797 33.9476Z"
                fill="#AFB1B8" />
            <path
                d="M63.3211 34.9593C63.4275 34.9641 63.5341 34.9641 63.6404 34.9593C63.7323 34.9511 63.8232 34.9364 63.9122 34.9153C63.9954 34.8977 64.0772 34.8751 64.1568 34.8478C64.2316 34.8214 64.3063 34.7891 64.3844 34.7569V33.9239H63.705C63.6882 33.9247 63.6714 33.9225 63.6556 33.9174C63.6398 33.9124 63.6254 33.9046 63.6133 33.8945C63.6021 33.8862 63.5933 33.8758 63.5874 33.8641C63.5815 33.8524 63.5787 33.8398 63.5793 33.8271V33.5425H64.8974V34.9622C64.7898 35.0287 64.6762 35.0875 64.5577 35.1382C64.4366 35.1898 64.3104 35.232 64.1806 35.2643C64.0417 35.2996 63.8996 35.3251 63.7559 35.3406C63.5912 35.3564 63.4257 35.3642 63.26 35.3641C62.967 35.3662 62.6763 35.3194 62.4038 35.2262C62.1495 35.1379 61.9184 35.0062 61.7244 34.839C61.5353 34.6701 61.3864 34.4708 61.2862 34.2524C61.1791 34.0068 61.1261 33.7462 61.1299 33.4839C61.1263 33.2199 61.1781 32.9576 61.2828 32.7095C61.3805 32.49 61.5297 32.2903 61.721 32.1229C61.9149 31.9562 62.1461 31.8255 62.4005 31.7386C62.6914 31.6441 63.0001 31.5974 63.3109 31.6008C63.4691 31.6006 63.627 31.6114 63.7831 31.633C63.9212 31.6524 64.0567 31.6839 64.1874 31.7269C64.3062 31.7654 64.4201 31.8146 64.5271 31.8735C64.6312 31.9314 64.7301 31.9962 64.8227 32.0671L64.6596 32.2959C64.6468 32.3168 64.6278 32.3344 64.6045 32.3468C64.5812 32.3591 64.5545 32.3659 64.5271 32.3663C64.4895 32.3653 64.453 32.3551 64.4218 32.337C64.3708 32.3135 64.3165 32.2842 64.2553 32.249C64.1831 32.2099 64.1069 32.1765 64.0277 32.1493C63.9265 32.1142 63.8219 32.0867 63.7152 32.0671C63.5729 32.0445 63.4284 32.0337 63.2837 32.0349C63.0596 32.0327 62.8371 32.0676 62.6281 32.1375C62.439 32.203 62.2686 32.3031 62.1287 32.4309C61.9879 32.564 61.8803 32.7208 61.8127 32.8914C61.661 33.2926 61.661 33.725 61.8127 34.1262C61.8871 34.3005 62.0028 34.4593 62.1525 34.5926C62.2918 34.7197 62.4609 34.8197 62.6485 34.8859C62.8645 34.95 63.0934 34.9749 63.3211 34.9593Z"
                fill="#AFB1B8" />
            <path d="M68.7362 34.9005H70.5911V35.3228H68.1689V31.6185H68.7498L68.7362 34.9005Z"
                fill="#AFB1B8" />
            <path d="M72.5208 35.3228H71.9398V31.6185H72.5208V35.3228Z" fill="#AFB1B8" />
            <path
                d="M74.6814 31.6361C74.7159 31.6531 74.746 31.6761 74.7697 31.7036L77.253 34.4959C77.2497 34.452 77.2497 34.4079 77.253 34.3639C77.253 34.3229 77.253 34.2818 77.253 34.2437V31.6039H77.7592V35.3231H77.4671C77.4238 35.3261 77.3804 35.319 77.3414 35.3025C77.3061 35.2841 77.275 35.2602 77.2496 35.2321L74.7697 32.4428C74.7697 32.4867 74.7697 32.5278 74.7697 32.5689C74.7697 32.6099 74.7697 32.6481 74.7697 32.6833V35.3231H74.2839V31.6185H74.5863C74.6191 31.6186 74.6515 31.6246 74.6814 31.6361Z"
                fill="#AFB1B8" />
            <path
                d="M82.0364 31.6185V32.0262H79.9777V33.2493H81.6457V33.6423H79.9777V34.9064H82.0364V35.3141H79.3798V31.6185H82.0364Z"
                fill="#AFB1B8" />
            <path
                d="M21.1617 8.74242L46.9568 15.0657V37.2237L21.1617 30.9033V8.74242ZM19.5073 6.85364V31.9797L48.6079 39.1154V13.9923L19.5073 6.85364Z"
                fill="#AFB1B8" />
            <path d="M35.1039 50.7791L6 43.6375V18.514L35.1039 25.6528V50.7791Z" fill="#AFB1B8" />
            <path
                d="M19.9897 8.4579L45.4484 14.7019L34.6215 24.0518L9.1594 17.8049L19.9897 8.4579ZM19.5073 6.85364L6 18.5146L35.1039 25.6531L48.6078 13.9922L19.5073 6.85364Z"
                fill="#AFB1B8" />
            <path d="M36.7414 49.3657L48.6078 39.1185L36.7414 36.2062V49.3657Z" fill="#AFB1B8" />

        </symbol>
    </defs>
</svg>